<svg xmlns="http://www.w3.org/2000/svg" xmlns:xlink="http://www.w3.org/1999/xlink" version="1.1" width="50" height="50" viewBox="0 0 50 50" xml:space="preserve">
<desc>Created with Fabric.js 3.5.0</desc>
<defs>
</defs>
<rect x="0" y="0" width="100%" height="100%" fill="rgba(255,255,255,0)"/>
<g transform="matrix(-0.3497 0 0 -0.3497 22.9059 25.5151)" id="15990">
<path style="stroke: none; stroke-width: 1; stroke-dasharray: none; stroke-linecap: butt; stroke-dashoffset: 0; stroke-linejoin: miter; stroke-miterlimit: 4; is-custom-font: none; font-file-url: none; fill: rgb(140,198,63); fill-rule: nonzero; opacity: 1;" vector-effect="non-scaling-stroke" transform=" translate(-67.4999, -67.5)" d="M 67.4998 0 C 41.1749 0 19.5748 50.625 19.5748 87.7498 C 19.5748 124.875 41.1749 135 67.4998 135 C 93.8248 135 115.425 124.875 115.425 87.7498 C 115.425 50.625 93.8248 0 67.4998 0 Z" stroke-linecap="round"/>
</g>
<g transform="matrix(0.0374 0 0 0.0374 19.7646 38.6428)" id="stroke">
<path style="stroke: rgb(0,0,0); stroke-width: 15; stroke-dasharray: none; stroke-linecap: round; stroke-dashoffset: 0; stroke-linejoin: round; stroke-miterlimit: 10; is-custom-font: none; font-file-url: none; fill: none; fill-rule: nonzero; opacity: 1; visibility: hidden;" transform=" translate(-357.056, -760.3941)" d="M 281.6 718.6 c -15 25.2 -12.9 59.1 3.9 83.2 c 16.7 24.1 46.8 37.8 76.1 36.2 c 27.9 -1.4 55.1 -16.6 69.7 -40.5 c 14.6 -23.8 15.3 -55.9 0.6 -79.6 C 402.6 670.8 310 670.8 281.6 718.6 z" stroke-linecap="round"/>
</g>
<g transform="matrix(0.0374 0 0 0.0374 31.2349 38.5842)" id="stroke">
<path style="stroke: rgb(0,0,0); stroke-width: 15; stroke-dasharray: none; stroke-linecap: round; stroke-dashoffset: 0; stroke-linejoin: round; stroke-miterlimit: 10; is-custom-font: none; font-file-url: none; fill: none; fill-rule: nonzero; opacity: 1; visibility: hidden;" transform=" translate(-663.4022, -758.8313)" d="M 579.9 725.3 c -14 35.3 0 79.1 31 101 c 31 21.9 75.8 21 106.8 -0.8 c 28.3 -20 40.7 -57.6 31.8 -91.1 C 729.7 660.3 607.9 654.5 579.9 725.3 z" stroke-linecap="round"/>
</g>
<g transform="matrix(0.0374 0 0 0.0374 19.8313 38.6151)" id="stroke">
<path style="stroke: rgb(0,0,0); stroke-width: 15; stroke-dasharray: none; stroke-linecap: round; stroke-dashoffset: 0; stroke-linejoin: round; stroke-miterlimit: 10; is-custom-font: none; font-file-url: none; fill: none; fill-rule: nonzero; opacity: 1; visibility: hidden;" transform=" translate(-358.8329, -759.6528)" d="M 329 747.8 c -4.5 11.8 -1.2 26.3 8.1 34.9 c 9.3 8.6 24 10.8 35.4 5.3 c 11.4 -5.5 18.9 -18.3 18.1 -30.9 c -0.5 -7.9 -4.2 -15.7 -10.3 -20.7 C 363.5 722.5 337.2 726.6 329 747.8 z" stroke-linecap="round"/>
</g>
<g transform="matrix(0.0374 0 0 0.0374 31.2154 38.4652)" id="stroke">
<path style="stroke: rgb(0,0,0); stroke-width: 15; stroke-dasharray: none; stroke-linecap: round; stroke-dashoffset: 0; stroke-linejoin: round; stroke-miterlimit: 10; is-custom-font: none; font-file-url: none; fill: none; fill-rule: nonzero; opacity: 1; visibility: hidden;" transform=" translate(-662.8755, -755.6502)" d="M 643.7 727 c -9.5 6.7 -14.9 18.5 -14.3 30.1 c 0.5 9.4 4.9 18.6 12 24.8 c 7.1 6.2 16.9 9.2 26.3 8 c 13.7 -1.8 25.6 -13.1 28.1 -26.7 C 701.2 734.7 668.8 709.3 643.7 727 z" stroke-linecap="round"/>
</g>
<g transform="matrix(0.0374 0 0 0.0374 25.437 38.5739)" id="stroke">
<path style="stroke: rgb(0,0,0); stroke-width: 15; stroke-dasharray: none; stroke-linecap: round; stroke-dashoffset: 0; stroke-linejoin: round; stroke-miterlimit: 10; is-custom-font: none; font-file-url: none; fill: none; fill-rule: nonzero; opacity: 1; visibility: hidden;" transform=" translate(-508.55, -758.55)" d="M 574.6 758 c -44 0.4 -88.1 0.7 -132.1 1.1" stroke-linecap="round"/>
</g>
<g transform="matrix(0.0374 0 0 0.0374 25.4865 34.2697)" id="stroke">
<path style="stroke: rgb(0,0,0); stroke-width: 15; stroke-dasharray: none; stroke-linecap: round; stroke-dashoffset: 0; stroke-linejoin: round; stroke-miterlimit: 10; is-custom-font: none; font-file-url: none; fill: none; fill-rule: nonzero; opacity: 1; visibility: hidden;" transform=" translate(-509.8917, -643.6024)" d="M 271.5 761.1 c -35.8 0.6 -71.5 1.3 -106.8 2.2 c -8.3 0.2 -15.4 -5.8 -16.7 -13.9 c -5.4 -35.2 -10 -92.6 19.8 -139.8 c 34.3 -54.3 80.8 -80.4 154.1 -80.9 c 101.9 -1.5 268 -3.3 369.9 -4.8 c 90.8 0 116 18.2 148.5 54.8 c 32.1 36 38.8 101.8 34.1 159.4 c -0.7 8.7 -7.8 15.4 -16.5 15.6 c -25.1 0.6 -75.9 1.8 -105.5 2.2" stroke-linecap="round"/>
</g>
<g transform="matrix(0.0374 0 0 0.0374 37.7507 32.8081)" id="stroke">
<path style="stroke: rgb(0,0,0); stroke-width: 15; stroke-dasharray: none; stroke-linecap: round; stroke-dashoffset: 0; stroke-linejoin: round; stroke-miterlimit: 10; is-custom-font: none; font-file-url: none; fill: none; fill-rule: nonzero; opacity: 1; visibility: hidden;" transform=" translate(-837.4196, -604.5597)" d="M 830.4 568.4 c -10.8 4.4 -20.5 12.8 -23.6 24 c -3.6 12.9 2.3 27.2 12.6 35.9 c 10.2 8.6 24 12.2 37.4 12.4 c 4.1 0.1 8.2 -0.2 12.3 -0.6" stroke-linecap="round"/>
</g>
<g transform="matrix(0.0374 0 0 0.0374 26.6615 31.7631)" id="stroke">
<path style="stroke: rgb(0,0,0); stroke-width: 15; stroke-dasharray: none; stroke-linecap: round; stroke-dashoffset: 0; stroke-linejoin: round; stroke-miterlimit: 10; is-custom-font: none; font-file-url: none; fill: none; fill-rule: nonzero; opacity: 1; visibility: hidden;" transform=" translate(-541.25, -576.65)" d="M 528.2 577.3 c 8.7 -0.4 17.4 -0.9 26.1 -1.3" stroke-linecap="round"/>
</g>
<g transform="matrix(0.0374 0 0 0.0374 20.4517 31.8717)" id="stroke">
<path style="stroke: rgb(0,0,0); stroke-width: 15; stroke-dasharray: none; stroke-linecap: round; stroke-dashoffset: 0; stroke-linejoin: round; stroke-miterlimit: 10; is-custom-font: none; font-file-url: none; fill: none; fill-rule: nonzero; opacity: 1; visibility: hidden;" transform=" translate(-375.4, -579.55)" d="M 360.2 580.6 c 10.1 -0.7 20.2 -1.4 30.4 -2.1" stroke-linecap="round"/>
</g>
<g transform="matrix(0.0374 0 0 0.0374 12.5345 35.7943)" id="stroke">
<path style="stroke: rgb(0,0,0); stroke-width: 15; stroke-dasharray: none; stroke-linecap: round; stroke-dashoffset: 0; stroke-linejoin: round; stroke-miterlimit: 10; is-custom-font: none; font-file-url: none; fill: none; fill-rule: nonzero; opacity: 1; visibility: hidden;" transform=" translate(-163.95, -684.3164)" d="M 155.9 632.9 c 7.3 1.4 14.1 4.7 18.7 10.5 c 6.9 8.7 7.3 20.8 7.3 32 c 0 8.3 0 16.6 0.1 24.9 c 0 6.9 0 14.2 -3.2 20.4 c -4.1 8 -12.8 12.8 -21.7 14.3 c -3.7 0.7 -7.4 0.8 -11.2 0.7" stroke-linecap="round"/>
</g>
<g transform="matrix(0.0374 0 0 0.0374 25.0599 25.9898)" id="stroke">
<path style="stroke: rgb(0,0,0); stroke-width: 15; stroke-dasharray: none; stroke-linecap: round; stroke-dashoffset: 0; stroke-linejoin: round; stroke-miterlimit: 10; is-custom-font: none; font-file-url: none; fill: none; fill-rule: nonzero; opacity: 1; visibility: hidden;" transform=" translate(-498.488, -422.4643)" d="M 306.7 529.2 c -2.2 -26 -2.3 -52.1 0.2 -78.1 c 2.6 -26 12.1 -52.1 27.8 -73 c 9.2 -12.1 21 -21.7 33.7 -30.1 c 75.9 -49.6 236.2 -40.1 287.6 15.3 c 17.5 18.8 25.1 41.5 29.8 66.9 c 5.5 29.7 7 63.4 5.7 93.5" stroke-linecap="round"/>
</g>
<g transform="matrix(0.0374 0 0 0.0374 24.898 25.9406)" id="stroke">
<path style="stroke: rgb(0,0,0); stroke-width: 15; stroke-dasharray: none; stroke-linecap: round; stroke-dashoffset: 0; stroke-linejoin: round; stroke-miterlimit: 10; is-custom-font: none; font-file-url: none; fill: none; fill-rule: nonzero; opacity: 1; visibility: hidden;" transform=" translate(-494.15, -421.15)" d="M 492.9 315.9 c 1.5 70.2 1.5 140.3 2.5 210.5" stroke-linecap="round"/>
</g>
<g transform="matrix(0.0374 0 0 0.0374 16.8448 27.5007)" id="stroke">
<path style="stroke: rgb(0,0,0); stroke-width: 15; stroke-dasharray: none; stroke-linecap: round; stroke-dashoffset: 0; stroke-linejoin: round; stroke-miterlimit: 10; is-custom-font: none; font-file-url: none; fill: none; fill-rule: nonzero; opacity: 1; visibility: hidden;" transform=" translate(-279.0797, -462.8271)" d="M 145.3 735.3 c -24.5 2.5 -42.2 -5.2 -51.8 -23.8 c -9.6 -18.6 -9.4 -43.5 -9 -64.4 c 2 -97 3.9 -189.1 5.9 -286.1 c 0.5 -26.9 1.2 -54.5 11.5 -79.3 c 17.8 -42.9 52.3 -66.7 107.6 -78.8 c 40.6 -8.9 198.5 -15 264.3 -12.4" stroke-linecap="round"/>
</g>
<g transform="matrix(0.0374 0 0 0.0374 26.2793 17.2205)" id="stroke">
<path style="stroke: rgb(0,0,0); stroke-width: 15; stroke-dasharray: none; stroke-linecap: round; stroke-dashoffset: 0; stroke-linejoin: round; stroke-miterlimit: 10; is-custom-font: none; font-file-url: none; fill: none; fill-rule: nonzero; opacity: 1; visibility: hidden;" transform=" translate(-531.0472, -188.2514)" d="M 585.4 130.1 c -25.6 1.4 -47.8 1.1 -73.7 2.6 c -10.5 0.6 -22.2 1.8 -29.3 9.5 c -6.7 7.3 -8.2 19.2 -8.3 29.2 c -0.2 15.6 -0.4 28.2 -0.6 43.8 c -0.1 8 1.1 16.8 6.5 22.6 c 5.8 6.2 15.4 8.7 24 8.6 c 28.2 0 56.4 -0.1 84.6 -0.1" stroke-linecap="round"/>
</g>
<g transform="matrix(0.0374 0 0 0.0374 28.996 17.2297)" id="stroke">
<path style="stroke: rgb(0,0,0); stroke-width: 15; stroke-dasharray: none; stroke-linecap: round; stroke-dashoffset: 0; stroke-linejoin: round; stroke-miterlimit: 10; is-custom-font: none; font-file-url: none; fill: none; fill-rule: nonzero; opacity: 1; visibility: hidden;" transform=" translate(-603.6, -188.5)" d="M 622 258.8 c -11.4 0.5 -21.7 0 -33 0.5 c -1.3 -46.9 -2.5 -93.8 -3.8 -140.7 c 10.1 -0.6 22.9 -0.4 33 -0.9 C 621.6 174.3 622 194.9 622 258.8 z" stroke-linecap="round"/>
</g>
<g transform="matrix(0.0374 0 0 0.0374 30.9056 16.0017)" id="stroke">
<path style="stroke: rgb(0,0,0); stroke-width: 15; stroke-dasharray: none; stroke-linecap: round; stroke-dashoffset: 0; stroke-linejoin: round; stroke-miterlimit: 10; is-custom-font: none; font-file-url: none; fill: none; fill-rule: nonzero; opacity: 1; visibility: hidden;" transform=" translate(-654.6031, -155.6992)" d="M 619.7 145 c 20.8 -0.4 38.8 -0.7 58.8 -1.1 c 5.9 -0.1 10.8 4.5 11 10.4 c 0 0.3 0 0.5 0 0.8 c 0.2 6 -4.5 11 -10.5 11.2 c -19.4 0.6 -37.8 0.7 -58.3 1.2" stroke-linecap="round"/>
</g>
<g transform="matrix(0.0374 0 0 0.0374 30.9242 18.2221)" id="stroke">
<path style="stroke: rgb(0,0,0); stroke-width: 15; stroke-dasharray: none; stroke-linecap: round; stroke-dashoffset: 0; stroke-linejoin: round; stroke-miterlimit: 10; is-custom-font: none; font-file-url: none; fill: none; fill-rule: nonzero; opacity: 1; visibility: hidden;" transform=" translate(-655.1008, -215)" d="M 621.7 203.9 c 20.3 -0.1 36.7 -0.4 56 -0.4 c 5.9 0 10.7 4.8 10.8 10.7 c 0 0.3 0 0.5 0 0.8 c 0.1 6 -4.7 10.9 -10.7 11 c -19 0.3 -35.9 0.3 -56 0.5" stroke-linecap="round"/>
</g>
<g transform="matrix(0.0329 0 0 0.0329 22.9866 24.0278)" id="outline">
<path style="stroke: none; stroke-width: 1; stroke-dasharray: none; stroke-linecap: butt; stroke-dashoffset: 0; stroke-linejoin: miter; stroke-miterlimit: 4; is-custom-font: none; font-file-url: none; fill: rgb(255,255,255); fill-rule: nonzero; opacity: 1;" transform=" translate(-480.0276, -480.0903)" d="M 385.1 730.6 c -10.5 -8.7 -24.5 -11.9 -37.5 -8.5 c -11.9 3.1 -21.2 11.5 -25.6 23 c -5.6 14.7 -1.5 32.4 10.1 43.1 c 7.3 6.7 17.2 10.3 27 10.3 c 5.7 0 11.5 -1.2 16.7 -3.7 c 14.2 -6.8 23.4 -22.5 22.3 -38.2 C 397.5 746.4 392.7 736.9 385.1 730.6 z M 369.4 781.3 c -8.7 4.1 -20.1 2.4 -27.1 -4.1 c -7.1 -6.5 -9.7 -17.7 -6.2 -26.7 c 2.7 -7.1 8.2 -12 15.4 -13.9 c 8.3 -2.2 17.3 -0.1 24.1 5.5 c 4.4 3.6 7.2 9.4 7.6 15.5 C 383.8 767.2 378 777.2 369.4 781.3 z M 683.4 720.2 c -14.1 -9 -30.6 -8.8 -44 0.7 v 0 c -11.4 8 -18.2 22.4 -17.4 36.6 c 0.6 11.6 5.9 22.6 14.6 30.1 c 7.5 6.5 17.4 10.1 27.2 10.1 c 1.7 0 3.3 -0.1 5 -0.3 c 16.9 -2.2 31.5 -15.9 34.6 -32.7 C 706.4 747.7 698.4 729.8 683.4 720.2 z M 688.5 761.9 c -1.9 10.4 -11.2 19.2 -21.7 20.6 c -7.2 0.9 -14.8 -1.4 -20.4 -6.3 c -5.5 -4.8 -9.1 -12.1 -9.5 -19.5 c -0.5 -9.2 3.9 -18.4 11.1 -23.5 c 11.9 -8.4 23 -3 27.2 -0.3 C 683.6 738.2 690.9 749.2 688.5 761.9 z M 520.7 577.7 c -0.2 -4.1 3 -7.7 7.1 -7.9 l 26.1 -1.3 c 4.1 -0.2 7.7 3 7.9 7.1 s -3 7.7 -7.1 7.9 l -26.1 1.3 c -0.1 0 -0.3 0 -0.4 0 C 524.2 584.8 520.9 581.7 520.7 577.7 z M 352.7 581.1 c -0.3 -4.1 2.8 -7.7 7 -8 l 30.4 -2.1 c 4.1 -0.3 7.7 2.8 8 7 c 0.3 4.1 -2.8 7.7 -7 8 l -30.4 2.1 c -0.2 0 -0.3 0 -0.5 0 C 356.3 588.1 353 585.1 352.7 581.1 z M 136.8 743.2 c 0.9 0 1.8 0 2.7 0 c 0.3 2.4 0.7 4.9 1.1 7.4 c 1.8 11.7 11.9 20.3 23.7 20.3 c 0.2 0 0.4 0 0.6 0 c 31.5 -0.8 64.3 -1.5 100 -2.1 c 1.8 13.2 6.7 26.1 14.5 37.3 c 17 24.4 47.1 39.6 77.8 39.6 c 1.6 0 3.2 0 4.8 -0.1 c 31.1 -1.6 60.1 -18.5 75.7 -44 c 6.5 -10.7 10.4 -22.7 11.8 -35 c 22.1 -0.2 44.2 -0.4 66.4 -0.6 c 17.3 -0.1 34.6 -0.3 51.9 -0.4 c 0.7 5.9 1.9 11.7 3.7 17.5 c 6.3 20.2 18.8 37.8 35.2 49.4 c 16.3 11.5 36.4 17.3 56.7 17.3 c 20.8 0 41.7 -6.1 58.8 -18.1 c 22 -15.5 35.5 -41.2 37.5 -68.3 c 29.7 -0.5 73.6 -1.5 98.4 -2.1 c 12.5 -0.3 22.8 -10 23.8 -22.5 c 1.7 -21 3.2 -60.9 -5.3 -99.2 c 0 -0.1 0 -0.1 0 -0.2 c -0.1 -0.7 -0.2 -1.3 -0.4 -1.9 c -5.5 -23.6 -14.8 -46.5 -30.2 -63.8 c -17.5 -19.6 -32.8 -33.6 -55.1 -43 c -22.1 -9.3 -50.5 -13.7 -91.3 -14.2 c 0.8 -31 -1.4 -61.8 -6.1 -87.4 c -3.9 -21.2 -11 -48.4 -31.7 -70.6 c -25.5 -27.5 -77.8 -46 -139.7 -49.4 c -9.8 -0.5 -19.5 -0.7 -29.1 -0.5 c 0 0 -0.1 0 -0.1 0 c 0 0 -0.1 0 -0.1 0 c -50.8 1.2 -97.3 13.2 -128.2 33.4 c -15.6 10.2 -26.9 20.3 -35.6 31.8 c -16.1 21.4 -26.6 48.7 -29.3 76.7 c -2.3 23.2 -2.5 46.8 -0.8 71.9 c -61.8 5.4 -104.8 31.7 -137.3 83.3 c -20.4 32.4 -28.2 72.7 -23.6 122.6 c -18.1 0.3 -30.4 -6.3 -37.6 -20.2 c -9 -17.4 -8.5 -42.5 -8.2 -60.8 c 1 -51 2 -100.6 3.1 -150.3 c 0.9 -44.9 1.9 -89.8 2.8 -135.8 c 0.5 -25.9 1.1 -52.7 11 -76.6 c 16.4 -39.5 48 -62.5 102.3 -74.3 c 37.5 -8.2 185.3 -14.4 255.1 -12.5 c -0.1 5.6 -0.2 11.2 -0.3 17.3 c -0.2 12.4 2.6 21.5 8.5 27.8 c 6.6 7 17.3 11 29.4 11 c 0 0 0 0 0.1 0 c 25.8 0 51.5 -0.1 77.3 -0.1 l 0.2 5.7 c 0.1 2 0.9 3.9 2.4 5.3 c 1.4 1.3 3.2 2 5.1 2 c 0.1 0 0.2 0 0.4 0 c 5.5 -0.3 10.7 -0.3 16.2 -0.2 c 5.4 0 11 0 16.9 -0.3 c 4 -0.2 7.1 -3.5 7.1 -7.5 c 0 -9.1 0 -17.3 0 -24.9 c 5.8 -0.1 11.3 -0.1 16.8 -0.1 c 10.7 -0.1 20.9 -0.2 31.8 -0.3 c 10.1 -0.2 18.2 -8.5 18.1 -18.6 l 0 -0.7 c -0.1 -10 -8.3 -18.1 -18.3 -18.1 c -10.7 0 -20.4 0.1 -30.6 0.2 c -5.8 0.1 -11.8 0.1 -18.1 0.2 c -0.1 -7.3 -0.3 -14.4 -0.6 -21.5 c 6.4 -0.1 12.6 -0.2 18.7 -0.3 c 10.9 -0.2 21.2 -0.3 32.1 -0.7 c 4.9 -0.2 9.5 -2.2 12.8 -5.8 c 3.3 -3.6 5.1 -8.3 4.9 -13.2 l 0 -0.8 c -0.4 -9.9 -8.7 -17.9 -18.7 -17.6 c -8.3 0.2 -16.2 0.3 -24.2 0.5 c -9 0.2 -17.9 0.3 -27.4 0.5 c -0.3 -6.2 -0.7 -12.9 -1.2 -20.2 c -0.2 -4.1 -3.8 -7.3 -7.9 -7 c -4.9 0.3 -10.6 0.4 -16.2 0.5 c -5.7 0.1 -11.6 0.2 -16.8 0.5 c -4 0.2 -7.2 3.6 -7.1 7.7 l 0.1 4.1 c -9.6 0.4 -19 0.7 -28 0.9 c -12.2 0.3 -24.9 0.6 -38.4 1.4 c -12.5 0.7 -25.5 2.3 -34.4 12 c -6.7 7.3 -10.1 18.5 -10.3 34.1 c -0.1 4 -0.1 7.8 -0.2 11.4 c -71.5 -2 -219.2 4.3 -258.5 12.8 c -29.3 6.4 -52.4 15.9 -70.7 29.1 c -19 13.7 -32.9 31.4 -42.3 54.2 c -11 26.5 -11.6 56 -12.1 82 c -0.9 46.1 -1.9 91 -2.8 135.8 C 79 546.4 78 596 77 647 c -0.4 19.9 -0.9 47.2 9.8 68 C 93.7 728.2 107.9 743.2 136.8 743.2 z M 424.8 793.7 c -13.1 21.4 -37.4 35.5 -63.6 36.9 c -27.3 1.4 -54.6 -11.6 -69.5 -33 c -15.3 -22 -16.8 -52.9 -3.6 -75.1 c 11.7 -19.6 37.6 -32 67.7 -32.3 c 30.7 -0.3 57.4 11.9 69.7 31.7 C 438.4 742.9 438.2 771.7 424.8 793.7 z M 713.4 819.3 c -28.8 20.3 -70.1 20.7 -98.2 0.8 c -28.4 -20.1 -40.8 -60.5 -28.4 -92.1 c 8.4 -21.3 32.9 -45.2 74.7 -45.2 c 2.1 0 4.3 0.1 6.6 0.2 c 28.1 1.6 64.4 16.6 74.2 53.3 c 1.7 6.4 2.5 12.9 2.6 19.4 c 0 0.1 0 0.2 0 0.2 c 0 0.1 0 0.1 0 0.2 C 744.9 781.1 733.3 805.3 713.4 819.3 z M 828.9 577.4 c 1.9 2 3.7 4.1 5.7 6.2 c 12 13.5 19.9 31 25 49.5 c -0.9 0 -1.9 0 -2.8 0 c -13.2 -0.2 -24.8 -4 -32.7 -10.6 c -8.6 -7.3 -12.8 -18.8 -10.2 -28.1 C 815.9 587.7 821.3 581.6 828.9 577.4 z M 521.1 323.9 c 58.2 3.2 106.6 19.9 129.5 44.7 c 14.3 15.4 22.6 34.3 28 63.2 c 4.6 24.8 6.6 54.7 5.9 84.8 c -50.1 0.7 -114.9 1.5 -177.8 2.3 c -1.3 0 -2.5 0 -3.8 0 c -0.3 -25.5 -0.6 -51.2 -0.8 -76.2 c -0.3 -39.1 -0.7 -79.4 -1.5 -119.3 C 507.3 323.3 514.2 323.5 521.1 323.9 z M 314.4 451.9 c 2.5 -25.4 11.9 -49.9 26.4 -69.2 c 7.6 -10.1 17.7 -19.1 31.8 -28.3 c 27.2 -17.8 67.9 -28.6 113 -30.7 c 0.8 39.8 1.2 80 1.5 119.1 c 0.2 25 0.4 50.7 0.8 76.2 c -59.9 0.7 -120 1.5 -166.1 2.2 c -2.7 0 -5.4 0.1 -8.1 0.2 C 312 497 312.2 474.2 314.4 451.9 z M 174.1 613.6 c 16.8 -26.6 36.3 -45.6 59.6 -58 c 24 -12.8 52.8 -19.1 88.2 -19.4 c 50.9 -0.8 119.1 -1.6 184.9 -2.4 c 65.9 -0.8 134 -1.6 184.9 -2.4 c 42.8 0 71.6 4 93.1 13.1 c 12.9 5.4 23.1 12.6 33.2 21.9 c -9.3 6 -15.9 14.4 -18.5 23.9 c -4.2 15 1.8 32.5 14.9 43.6 c 13.5 11.4 30.3 14 42.1 14.2 c 0.5 0 1 0 1.5 0 c 1.6 0 3.3 0 5 -0.1 c 6.7 34.6 5.3 70.3 3.8 89.4 c -0.4 4.9 -4.4 8.6 -9.2 8.7 c -24.7 0.6 -68.5 1.6 -98.1 2.1 c -0.5 -5.3 -1.4 -10.6 -2.7 -15.8 c -9.8 -36.6 -44.2 -61.9 -87.8 -64.4 c -20 -1.2 -40.2 2.9 -56.7 11.5 c -18.4 9.6 -32.1 24.5 -39.4 42.9 c -3.5 8.8 -5.4 18.3 -5.8 28 c -17.1 0.1 -34.3 0.3 -51.4 0.4 c -22 0.2 -43.9 0.4 -65.8 0.6 c -0.8 -13.3 -4.7 -26.3 -11.6 -37.5 c -15 -24.3 -46.7 -39.2 -82.6 -38.8 c -35.3 0.3 -66.1 15.5 -80.5 39.6 c -7 11.8 -10.7 25.3 -11.2 39 c -35.5 0.6 -68.1 1.3 -99.6 2.1 c -4.5 0.1 -8.4 -3.1 -9.1 -7.6 c -0.3 -1.8 -0.6 -3.7 -0.8 -5.5 c 1.4 -0.1 2.7 -0.3 4 -0.5 c 12.2 -2.2 22.3 -9 27 -18.3 c 4 -7.9 4 -16.7 4 -23.8 c 0 -8.3 -0.1 -16.6 -0.1 -24.9 c 0 -10.7 -0.1 -25.4 -8.9 -36.6 c -3.7 -4.6 -8.5 -8.2 -14.4 -10.6 C 168.5 623.1 171.1 618.2 174.1 613.6 z M 160.5 642 c 2.9 1.2 5.9 3.1 8.2 6 c 5.2 6.5 5.7 16.2 5.7 27.3 c 0 8.3 0 16.6 0.1 24.9 c 0 6 0 12.3 -2.4 16.9 c -2.6 5.1 -8.7 9 -16.3 10.4 c -1 0.2 -2.1 0.3 -3.1 0.4 C 149.6 694.7 152.2 666.3 160.5 642 z M 647.3 211.2 c 10.2 -0.1 19.8 -0.2 30.5 -0.2 c 1.8 0 3.3 1.5 3.3 3.3 l 0 0.8 c 0 1.8 -1.5 3.3 -3.3 3.4 c -10.9 0.2 -21 0.2 -31.7 0.3 c -5.4 0 -11 0.1 -16.7 0.1 c 0 -2.6 0 -5.1 -0.1 -7.5 C 635.5 211.3 641.5 211.3 647.3 211.2 z M 654.5 151.9 c 7.9 -0.2 15.9 -0.3 24.1 -0.5 c 1.8 0 3.3 1.4 3.4 3.2 l 0 0.8 c 0 1.2 -0.5 2 -0.9 2.4 c -0.4 0.4 -1.1 1 -2.3 1.1 c -10.7 0.4 -21 0.5 -31.8 0.7 c -6.2 0.1 -12.5 0.2 -19.1 0.3 c -0.1 -2.4 -0.2 -4.9 -0.3 -7.5 C 636.9 152.2 645.7 152.1 654.5 151.9 z M 601.7 125.7 c 3.1 0 6.3 -0.1 9.4 -0.2 c 2.9 49.4 3.3 71.2 3.4 126.1 c -3 0 -6 0 -9 0 c -3 0 -6.1 0 -9.2 0 l -3.3 -121.9 c 0 0 0 0 0 0 c 0 0 0 0 0 0 l -0.1 -3.9 C 595.7 125.8 598.8 125.7 601.7 125.7 z M 481 215.3 c 0.1 -7.8 0.2 -14.9 0.3 -22 c 0.1 -7 0.2 -14 0.3 -21.8 c 0.2 -11.6 2.3 -19.8 6.4 -24.2 c 5.1 -5.6 14.3 -6.5 24.2 -7.1 c 13.2 -0.8 25.7 -1.1 37.8 -1.4 c 9.1 -0.2 18.4 -0.4 28.1 -0.9 l 2.7 100.9 c -25.6 0 -51.3 0.1 -76.9 0.1 c 0 0 0 0 0 0 c -7.9 0 -14.7 -2.3 -18.4 -6.3 C 482.4 229.3 480.9 223.5 481 215.3 z M 497.8 737.1 c -4.1 0 -7.4 -3.2 -7.5 -7.3 c -1.1 -49 -2.2 -125.5 -2 -177.4 c 0 -4.1 3.4 -7.5 7.5 -7.5 c 0 0 0 0 0 0 c 4.1 0 7.5 3.4 7.5 7.5 c -0.2 51.8 0.9 128.1 2 177 c 0.1 4.1 -3.2 7.6 -7.3 7.7 C 497.9 737.1 497.9 737.1 497.8 737.1 z" stroke-linecap="round"/>
</g>
<g transform="matrix(0.0374 0 0 0.0374 25.5063 34.3128)" id="flat">
<path style="stroke: none; stroke-width: 1; stroke-dasharray: none; stroke-linecap: butt; stroke-dashoffset: 0; stroke-linejoin: miter; stroke-miterlimit: 4; is-custom-font: none; font-file-url: none; fill: rgb(61,197,161); fill-rule: nonzero; opacity: 1; visibility: hidden;" transform=" translate(-510.4198, -644.7524)" d="M 692.5 524.9 c -102 1.5 -268.3 3.3 -370.3 4.8 c -73.3 0.6 -119.9 26.6 -154.2 81 c -29.8 47.3 -25.3 104.7 -19.8 139.9 c 1.3 8.2 8.4 14.2 16.7 14 c 35.4 -0.9 71.1 -1.6 107 -2.2 l 481.3 -5.3 c 29.6 -0.5 80.4 -1.7 105.6 -2.2 c 8.7 -0.2 15.8 -6.9 16.5 -15.6 c 4.7 -57.7 -2 -123.5 -34.1 -159.6 C 808.6 543.2 783.4 524.9 692.5 524.9 z" stroke-linecap="round"/>
</g>
<g transform="matrix(0.0374 0 0 0.0374 19.7804 38.6931)" id="flat">
<path style="stroke: none; stroke-width: 1; stroke-dasharray: none; stroke-linecap: butt; stroke-dashoffset: 0; stroke-linejoin: miter; stroke-miterlimit: 4; is-custom-font: none; font-file-url: none; fill: rgb(26,29,63); fill-rule: nonzero; opacity: 1; visibility: hidden;" transform=" translate(-357.4752, -761.7369)" d="M 282 719.9 c -15 25.2 -12.9 59.2 3.9 83.3 c 16.8 24.1 46.8 37.8 76.1 36.3 c 27.9 -1.4 55.2 -16.6 69.7 -40.5 c 14.6 -23.9 15.4 -55.9 0.6 -79.7 C 403.2 672 310.5 671.9 282 719.9 z" stroke-linecap="round"/>
</g>
<g transform="matrix(0.0374 0 0 0.0374 31.2638 38.6319)" id="flat">
<path style="stroke: none; stroke-width: 1; stroke-dasharray: none; stroke-linecap: butt; stroke-dashoffset: 0; stroke-linejoin: miter; stroke-miterlimit: 4; is-custom-font: none; font-file-url: none; fill: rgb(26,29,63); fill-rule: nonzero; opacity: 1; visibility: hidden;" transform=" translate(-664.1721, -760.1051)" d="M 580.6 726.5 c -14 35.3 0 79.1 31 101.1 c 31 21.9 75.9 21.1 106.9 -0.8 c 28.3 -20 40.8 -57.6 31.8 -91.1 C 730.6 661.5 608.6 655.7 580.6 726.5 z" stroke-linecap="round"/>
</g>
<g transform="matrix(0.0374 0 0 0.0374 37.7741 32.8564)" id="flat">
<path style="stroke: none; stroke-width: 1; stroke-dasharray: none; stroke-linecap: butt; stroke-dashoffset: 0; stroke-linejoin: miter; stroke-miterlimit: 4; is-custom-font: none; font-file-url: none; fill: rgb(221,237,231); fill-rule: nonzero; opacity: 1; visibility: hidden;" transform=" translate(-838.0435, -605.85)" d="M 820.2 629.4 c 10.2 8.6 24 12.2 37.4 12.4 c 2.4 0 4.8 0 11.9 -2.2 c -5.5 -23.4 -14.6 -44.4 -28.4 -59.9 c -3.1 -3.4 -6 -6.7 -9 -9.8 c -16.4 8.7 -22.2 15.4 -24.5 23.6 C 804.1 606.4 810 620.8 820.2 629.4 z" stroke-linecap="round"/>
</g>
<g transform="matrix(0.0374 0 0 0.0374 19.8493 38.6633)" id="flat">
<path style="stroke: none; stroke-width: 1; stroke-dasharray: none; stroke-linecap: butt; stroke-dashoffset: 0; stroke-linejoin: miter; stroke-miterlimit: 4; is-custom-font: none; font-file-url: none; fill: rgb(221,237,231); fill-rule: nonzero; opacity: 1; visibility: hidden;" transform=" translate(-359.3125, -760.9405)" d="M 373.1 789.4 c 11.5 -5.5 18.9 -18.3 18.1 -31 c -0.5 -7.9 -4.2 -15.7 -10.4 -20.8 c -16.8 -13.9 -43.2 -9.8 -51.4 11.5 c -4.6 11.9 -1.2 26.3 8.2 34.9 C 347 792.6 361.7 794.9 373.1 789.4 z" stroke-linecap="round"/>
</g>
<g transform="matrix(0.0374 0 0 0.0374 31.2502 38.5121)" id="flat">
<path style="stroke: none; stroke-width: 1; stroke-dasharray: none; stroke-linecap: butt; stroke-dashoffset: 0; stroke-linejoin: miter; stroke-miterlimit: 4; is-custom-font: none; font-file-url: none; fill: rgb(221,237,231); fill-rule: nonzero; opacity: 1; visibility: hidden;" transform=" translate(-663.8057, -756.9008)" d="M 642.3 783.2 c 7.1 6.2 16.9 9.2 26.3 8 c 13.7 -1.8 25.7 -13.1 28.2 -26.7 c 5.2 -28.6 -27.1 -54 -52.2 -36.3 c -9.5 6.7 -14.9 18.5 -14.3 30.1 C 630.7 767.8 635.1 777 642.3 783.2 z" stroke-linecap="round"/>
</g>
<g transform="matrix(0.0374 0 0 0.0374 12.4843 35.8129)" id="flat">
<path style="stroke: none; stroke-width: 1; stroke-dasharray: none; stroke-linecap: butt; stroke-dashoffset: 0; stroke-linejoin: miter; stroke-miterlimit: 4; is-custom-font: none; font-file-url: none; fill: rgb(237,100,78); fill-rule: nonzero; opacity: 1; visibility: hidden;" transform=" translate(-162.6086, -684.8123)" d="M 181.7 675.9 c 0 -11.2 -0.4 -23.2 -7.3 -32 c -4.6 -5.8 -11.4 -9.1 -18.7 -10.5 c -9.9 10.8 -16.1 74.5 -9.9 102.8 c 3.8 0.1 7.5 -0.1 11.2 -0.7 c 8.8 -1.6 17.6 -6.3 21.7 -14.3 c 3.2 -6.2 3.2 -13.4 3.2 -20.4 C 181.8 692.5 181.7 684.2 181.7 675.9 z" stroke-linecap="round"/>
</g>
<g transform="matrix(0.0374 0 0 0.0374 26.9009 17.2298)" id="flat">
<path style="stroke: none; stroke-width: 1; stroke-dasharray: none; stroke-linecap: butt; stroke-dashoffset: 0; stroke-linejoin: miter; stroke-miterlimit: 4; is-custom-font: none; font-file-url: none; fill: rgb(73,78,223); fill-rule: nonzero; opacity: 1; visibility: hidden;" transform=" translate(-547.6472, -188.5)" d="M 503.9 246.4 c 28.2 0 56.4 -0.1 84.6 -0.1 c 0.1 4.3 0.2 8.7 0.4 13 c 11.4 -0.5 21.7 0 33 -0.5 c 0 -64 -0.4 -84.5 -3.8 -141.1 c -10.1 0.6 -22.9 0.4 -33 0.9 c 0.1 3.8 0.2 7.7 0.3 11.5 c -25.6 1.4 -47.8 1.1 -73.7 2.6 c -10.5 0.6 -22.2 1.8 -29.3 9.5 c -6.7 7.3 -8.2 19.2 -8.3 29.2 c -0.2 15.6 -0.4 28.2 -0.7 43.8 c -0.1 8 1.1 16.8 6.5 22.6 C 485.8 244 495.4 246.4 503.9 246.4 z" stroke-linecap="round"/>
</g>
<g transform="matrix(0.0374 0 0 0.0374 37.7857 32.8495)" id="flat">
<path style="stroke: none; stroke-width: 1; stroke-dasharray: none; stroke-linecap: butt; stroke-dashoffset: 0; stroke-linejoin: miter; stroke-miterlimit: 4; is-custom-font: none; font-file-url: none; fill: rgb(26,29,63); fill-rule: nonzero; opacity: 1; visibility: hidden;" transform=" translate(-838.3539, -605.6653)" d="M 815.4 635.1 c 13.5 11.4 30.4 14 42.2 14.2 c 0.5 0 1 0 1.5 0 c 3.8 0 7.6 -0.2 11.7 -0.6 c 4.1 -0.4 7.1 -4.1 6.7 -8.2 c -0.4 -4.1 -4.1 -7.1 -8.2 -6.7 c -4 0.4 -7.8 0.6 -11.4 0.6 c -13.2 -0.2 -24.8 -4 -32.7 -10.6 c -8.6 -7.3 -12.8 -18.9 -10.2 -28.2 c 2.2 -7.9 9.4 -15.1 19.3 -19.1 c 3.8 -1.6 5.7 -6 4.1 -9.8 c -1.6 -3.8 -6 -5.7 -9.8 -4.1 c -14.3 5.9 -24.5 16.4 -28 28.9 C 796.2 606.5 802.2 624 815.4 635.1 z" stroke-linecap="round"/>
</g>
<g transform="matrix(0.0374 0 0 0.0374 26.6839 31.8042)" id="flat">
<path style="stroke: none; stroke-width: 1; stroke-dasharray: none; stroke-linecap: butt; stroke-dashoffset: 0; stroke-linejoin: miter; stroke-miterlimit: 4; is-custom-font: none; font-file-url: none; fill: rgb(26,29,63); fill-rule: nonzero; opacity: 1; visibility: hidden;" transform=" translate(-541.85, -577.7456)" d="M 529.2 585.9 l 26.1 -1.3 c 4.1 -0.2 7.3 -3.7 7.1 -7.9 c -0.2 -4.1 -3.7 -7.3 -7.9 -7.1 l -26.1 1.3 c -4.1 0.2 -7.3 3.7 -7.1 7.9 c 0.2 4 3.5 7.1 7.5 7.1 C 529 585.9 529.1 585.9 529.2 585.9 z" stroke-linecap="round"/>
</g>
<g transform="matrix(0.0374 0 0 0.0374 20.4704 31.9125)" id="flat">
<path style="stroke: none; stroke-width: 1; stroke-dasharray: none; stroke-linecap: butt; stroke-dashoffset: 0; stroke-linejoin: miter; stroke-miterlimit: 4; is-custom-font: none; font-file-url: none; fill: rgb(26,29,63); fill-rule: nonzero; opacity: 1; visibility: hidden;" transform=" translate(-375.9, -580.6403)" d="M 360.7 589.2 c 0.2 0 0.3 0 0.5 0 l 30.4 -2.1 c 4.1 -0.3 7.3 -3.9 7 -8 c -0.3 -4.1 -3.9 -7.3 -8 -7 l -30.4 2.1 c -4.1 0.3 -7.3 3.9 -7 8 C 353.5 586.1 356.8 589.2 360.7 589.2 z" stroke-linecap="round"/>
</g>
<g transform="matrix(0.0374 0 0 0.0374 25.0028 34.3183)" id="flat">
<path style="stroke: none; stroke-width: 1; stroke-dasharray: none; stroke-linecap: butt; stroke-dashoffset: 0; stroke-linejoin: miter; stroke-miterlimit: 4; is-custom-font: none; font-file-url: none; fill: rgb(26,29,63); fill-rule: nonzero; opacity: 1; visibility: hidden;" transform=" translate(-496.95, -644.8989)" d="M 497.9 737 c 0 0 0.1 0 0.1 0 c 4.1 -0.1 7.5 -3.5 7.4 -7.6 c -0.4 -25.7 -0.9 -78.2 -1.6 -138.9 l -0.3 -30.3 c 0 -4.1 -3.4 -7.5 -7.6 -7.4 c -4.1 0 -7.5 3.4 -7.4 7.6 l 0.3 30.3 c 0.6 60.8 1.2 113.2 1.6 139 C 490.4 733.8 493.8 737 497.9 737 z" stroke-linecap="round"/>
</g>
<g transform="matrix(0.0374 0 0 0.0374 25.0631 25.9897)" id="flat">
<path style="stroke: none; stroke-width: 1; stroke-dasharray: none; stroke-linecap: butt; stroke-dashoffset: 0; stroke-linejoin: miter; stroke-miterlimit: 4; is-custom-font: none; font-file-url: none; fill: rgb(26,29,63); fill-rule: nonzero; opacity: 1; visibility: hidden;" transform=" translate(-498.5728, -422.4617)" d="M 492.6 308.4 c -50.8 1.2 -97.3 13.2 -128.2 33.4 c -15.6 10.2 -26.9 20.3 -35.6 31.8 c -16.1 21.4 -26.6 48.7 -29.3 76.7 c -2.5 25.5 -2.6 51.5 -0.2 79.4 c 0.3 3.9 3.6 6.9 7.5 6.9 c 0.2 0 0.4 0 0.6 0 c 4.1 -0.3 7.2 -4 6.8 -8.1 c -2.3 -27 -2.2 -52.1 0.2 -76.7 c 2.5 -25.4 11.9 -49.9 26.4 -69.2 c 7.6 -10.1 17.7 -19.1 31.8 -28.3 c 27.2 -17.8 67.9 -28.6 113 -30.7 c 0.8 40.4 1.7 125.1 2.6 203.8 c 0 4.1 3.4 7.4 7.5 7.4 c 0 0 0.1 0 0.1 0 c 4.1 0 7.5 -3.4 7.4 -7.6 c -0.9 -78.8 -1.8 -163.6 -2.6 -204 c 6.8 0 13.6 0.2 20.5 0.5 c 58.2 3.2 106.6 19.9 129.5 44.7 c 14.3 15.4 22.6 34.3 28 63.2 c 4.9 26.8 6.9 59.4 5.6 91.9 c -0.2 4.1 3.1 7.6 7.2 7.8 c 4.1 0.2 7.6 -3.1 7.8 -7.2 c 1.3 -33.6 -0.7 -67.4 -5.9 -95.2 c -3.9 -21.2 -11 -48.4 -31.7 -70.6 c -25.5 -27.5 -77.8 -46 -139.7 -49.4 c -9.8 -0.5 -19.5 -0.7 -29.1 -0.5 c 0 0 -0.1 0 -0.1 0 C 492.7 308.4 492.7 308.4 492.6 308.4 z" stroke-linecap="round"/>
</g>
<g transform="matrix(0.0374 0 0 0.0374 16.8445 27.518)" id="flat">
<path style="stroke: none; stroke-width: 1; stroke-dasharray: none; stroke-linecap: butt; stroke-dashoffset: 0; stroke-linejoin: miter; stroke-miterlimit: 4; is-custom-font: none; font-file-url: none; fill: rgb(26,29,63); fill-rule: nonzero; opacity: 1; visibility: hidden;" transform=" translate(-279.0735, -463.2878)" d="M 146.1 744.3 C 146.1 744.3 146.1 744.3 146.1 744.3 C 146.1 744.3 146.1 744.3 146.1 744.3 C 146.2 744.3 146.2 744.3 146.1 744.3 c 0.1 0 0.2 0 0.2 0 l 0 0 c 0.7 0 1.4 0 2.1 0 c 3.7 0 7.2 -0.3 10.4 -0.9 c 12.2 -2.2 22.3 -9 27 -18.3 c 4 -7.9 4 -16.7 4 -23.8 c 0 -8.3 -0.1 -16.6 -0.1 -24.9 c 0 -10.7 -0.1 -25.5 -9 -36.6 c -5.4 -6.8 -13.4 -11.4 -23.2 -13.2 c -4.1 -0.8 -8 1.9 -8.7 6 c -0.8 4.1 1.9 8 6 8.7 c 4.3 0.8 10.3 2.8 14.2 7.8 c 5.2 6.5 5.7 16.3 5.7 27.3 c 0 8.3 0 16.6 0.1 24.9 c 0 6 0 12.3 -2.4 17 c -2.6 5.2 -8.7 9 -16.3 10.4 c -2.9 0.5 -6.1 0.7 -9.6 0.6 c 0 0 0 0 0 0 c 0 0 0 0 0 0 c -24.4 -0.6 -39.2 -7.4 -46.4 -21.3 c -9 -17.4 -8.5 -42.5 -8.2 -60.8 c 1 -51 2 -100.6 3.1 -150.3 c 0.9 -44.9 1.9 -89.8 2.8 -135.8 c 0.5 -25.9 1.1 -52.7 11 -76.6 c 16.4 -39.5 48 -62.5 102.3 -74.3 c 38.8 -8.5 196.1 -14.9 262.4 -12.3 c 4.1 0.2 7.6 -3.1 7.8 -7.2 c 0.2 -4.1 -3.1 -7.6 -7.2 -7.8 c -68 -2.7 -225.4 3.7 -266.2 12.6 c -29.3 6.4 -52.4 15.9 -70.7 29.1 c -19 13.7 -32.9 31.4 -42.3 54.2 c -11 26.5 -11.6 56 -12.1 82 c -0.9 46.1 -1.9 91 -2.8 135.8 C 79 546.4 78 596 77 647 c -0.4 19.9 -0.9 47.2 9.8 68 C 96.7 734 116.1 743.6 146.1 744.3 z" stroke-linecap="round"/>
</g>
<g transform="matrix(0.0374 0 0 0.0374 28.3764 17.2464)" id="flat">
<path style="stroke: none; stroke-width: 1; stroke-dasharray: none; stroke-linecap: butt; stroke-dashoffset: 0; stroke-linejoin: miter; stroke-miterlimit: 4; is-custom-font: none; font-file-url: none; fill: rgb(26,29,63); fill-rule: nonzero; opacity: 1; visibility: hidden;" transform=" translate(-587.0501, -188.9457)" d="M 581.4 259.7 c 0.2 4 3.5 7.1 7.5 7.1 c 0.1 0 0.2 0 0.4 0 c 4.1 -0.2 7.3 -3.7 7.1 -7.9 c -0.9 -18.2 -1.5 -47.8 -2.1 -76.5 c -0.5 -22.8 -1 -46.4 -1.6 -64.1 c -0.1 -4.1 -3.6 -7.4 -7.8 -7.2 c -4.1 0.1 -7.4 3.6 -7.2 7.8 c 0.6 17.6 1.1 41.2 1.6 63.9 C 579.9 211.5 580.5 241.3 581.4 259.7 z" stroke-linecap="round"/>
</g>
<g transform="matrix(0.0374 0 0 0.0374 30.9076 16.0054)" id="flat">
<path style="stroke: none; stroke-width: 1; stroke-dasharray: none; stroke-linecap: butt; stroke-dashoffset: 0; stroke-linejoin: miter; stroke-miterlimit: 4; is-custom-font: none; font-file-url: none; fill: rgb(26,29,63); fill-rule: nonzero; opacity: 1; visibility: hidden;" transform=" translate(-654.6575, -155.7959)" d="M 619.7 152.5 c 0 0 0.1 0 0.1 0 c 12.3 -0.2 23.6 -0.4 34.8 -0.6 c 7.9 -0.2 15.7 -0.3 24 -0.5 c 1.8 0 3.3 1.4 3.4 3.2 l 0 0.8 c 0 1.2 -0.5 2 -0.9 2.4 c -0.4 0.4 -1.1 1 -2.3 1.1 c -10.7 0.4 -21 0.5 -31.8 0.7 c -8.5 0.1 -17.3 0.3 -26.4 0.5 c -4.1 0.1 -7.4 3.6 -7.3 7.7 c 0.1 4.1 3.4 7.3 7.5 7.3 c 0.1 0 0.1 0 0.2 0 c 9.1 -0.2 17.8 -0.4 26.3 -0.5 c 10.9 -0.2 21.2 -0.3 32.1 -0.7 c 4.9 -0.2 9.5 -2.2 12.8 -5.8 c 3.3 -3.6 5.1 -8.3 4.9 -13.2 l 0 -0.8 c -0.4 -9.9 -8.7 -17.9 -18.7 -17.6 c -8.2 0.1 -16.1 0.3 -24 0.5 c -11.3 0.2 -22.6 0.4 -34.8 0.6 c -4.1 0.1 -7.4 3.5 -7.4 7.6 C 612.3 149.3 615.6 152.5 619.7 152.5 z" stroke-linecap="round"/>
</g>
<g transform="matrix(0.0374 0 0 0.0374 30.9261 18.2202)" id="flat">
<path style="stroke: none; stroke-width: 1; stroke-dasharray: none; stroke-linecap: butt; stroke-dashoffset: 0; stroke-linejoin: miter; stroke-miterlimit: 4; is-custom-font: none; font-file-url: none; fill: rgb(26,29,63); fill-rule: nonzero; opacity: 1; visibility: hidden;" transform=" translate(-655.1505, -214.95)" d="M 677.8 218.4 c -10.9 0.2 -21 0.2 -31.7 0.3 c -7.8 0.1 -15.7 0.1 -24.3 0.2 c -4.1 0 -7.5 3.4 -7.4 7.6 c 0 4.1 3.4 7.4 7.5 7.4 c 0 0 0.1 0 0.1 0 c 8.5 -0.1 16.4 -0.2 24.2 -0.2 c 10.7 -0.1 20.9 -0.2 31.8 -0.3 c 10.1 -0.2 18.2 -8.5 18.1 -18.6 l 0 -0.7 c -0.1 -10 -8.3 -18.1 -18.3 -18.1 c -10.8 0 -20.4 0.1 -30.6 0.2 c -8.1 0.1 -16.4 0.2 -25.5 0.2 c -4.1 0 -7.5 3.4 -7.5 7.5 c 0 4.1 3.4 7.5 7.5 7.5 c 0 0 0 0 0 0 c 9.1 0 17.5 -0.1 25.6 -0.2 c 10.2 -0.1 19.8 -0.2 30.5 -0.2 c 1.8 0 3.3 1.5 3.3 3.3 l 0 0.7 C 681.1 216.9 679.6 218.4 677.8 218.4 z" stroke-linecap="round"/>
</g>
<g transform="matrix(0.0374 0 0 0.0374 26.9009 17.2298)" id="colored_x5F_line">
<path style="stroke: none; stroke-width: 1; stroke-dasharray: none; stroke-linecap: butt; stroke-dashoffset: 0; stroke-linejoin: miter; stroke-miterlimit: 4; is-custom-font: none; font-file-url: none; fill: rgb(233,180,77); fill-rule: nonzero; opacity: 1; visibility: hidden;" transform=" translate(-547.6472, -188.5)" d="M 503.9 246.4 c 28.2 0 56.4 -0.1 84.6 -0.1 c 0.1 4.3 0.2 8.7 0.4 13 c 11.4 -0.5 21.7 0 33 -0.5 c 0 -64 -0.4 -84.5 -3.8 -141.1 c -10.1 0.6 -22.9 0.4 -33 0.9 c 0.1 3.8 0.2 7.7 0.3 11.5 c -25.6 1.4 -47.8 1.1 -73.7 2.6 c -10.5 0.6 -22.2 1.8 -29.3 9.5 c -6.7 7.3 -8.2 19.2 -8.3 29.2 c -0.2 15.6 -0.4 28.2 -0.7 43.8 c -0.1 8 1.1 16.8 6.5 22.6 C 485.8 244 495.4 246.4 503.9 246.4 z" stroke-linecap="round"/>
</g>
<g transform="matrix(0.0374 0 0 0.0374 25.5101 34.3129)" id="colored_x5F_line">
<path style="stroke: none; stroke-width: 1; stroke-dasharray: none; stroke-linecap: butt; stroke-dashoffset: 0; stroke-linejoin: miter; stroke-miterlimit: 4; is-custom-font: none; font-file-url: none; fill: rgb(233,180,77); fill-rule: nonzero; opacity: 1; visibility: hidden;" transform=" translate(-510.5198, -644.7554)" d="M 164.9 764.6 c 35.4 -0.9 71.1 -1.6 107 -2.2 l 54.7 -0.6 c -0.2 -4.3 0.4 -8.7 1.9 -12.7 c 8.2 -21.3 35.5 -26.3 52.4 -12.5 c 6.1 5.1 10.8 13.8 11.4 21.8 c 0.1 0.9 0.1 1.8 0 2.7 c 0 0 237 -2.7 237 -2.8 c -0.6 -11.6 5.8 -24.4 15.3 -31.1 c 23.1 -16.3 53.4 4.9 53.8 30.5 l 54.9 -0.6 c 29.6 -0.5 80.4 -1.7 105.6 -2.2 c 8.7 -0.2 15.8 -6.9 16.5 -15.6 c 4.7 -57.7 -2 -123.5 -34.1 -159.6 c -32.6 -36.5 -57.8 -54.8 -148.7 -54.8 c -102 1.5 -268.3 3.3 -370.3 4.8 c -73.3 0.6 -119.9 26.6 -154.2 81 c -29.8 47.3 -25.3 104.7 -19.8 139.9 C 149.5 758.9 156.6 764.9 164.9 764.6 z" stroke-linecap="round"/>
</g>
<g transform="matrix(0.0374 0 0 0.0374 37.7857 32.8495)" id="colored_x5F_line">
<path style="stroke: none; stroke-width: 1; stroke-dasharray: none; stroke-linecap: butt; stroke-dashoffset: 0; stroke-linejoin: miter; stroke-miterlimit: 4; is-custom-font: none; font-file-url: none; fill: rgb(34,34,34); fill-rule: nonzero; opacity: 1; visibility: hidden;" transform=" translate(-838.3539, -605.6653)" d="M 815.4 635.1 c 13.5 11.4 30.4 14 42.2 14.2 c 0.5 0 1 0 1.5 0 c 3.8 0 7.6 -0.2 11.7 -0.6 c 4.1 -0.4 7.1 -4.1 6.7 -8.2 c -0.4 -4.1 -4.1 -7.1 -8.2 -6.7 c -4 0.4 -7.8 0.6 -11.4 0.6 c -13.2 -0.2 -24.8 -4 -32.7 -10.6 c -8.6 -7.3 -12.8 -18.9 -10.2 -28.2 c 2.2 -7.9 9.4 -15.1 19.3 -19.1 c 3.8 -1.6 5.7 -6 4.1 -9.8 c -1.6 -3.8 -6 -5.7 -9.8 -4.1 c -14.3 5.9 -24.5 16.4 -28 28.9 C 796.2 606.5 802.2 624 815.4 635.1 z" stroke-linecap="round"/>
</g>
<g transform="matrix(0.0374 0 0 0.0374 26.6839 31.8042)" id="colored_x5F_line">
<path style="stroke: none; stroke-width: 1; stroke-dasharray: none; stroke-linecap: butt; stroke-dashoffset: 0; stroke-linejoin: miter; stroke-miterlimit: 4; is-custom-font: none; font-file-url: none; fill: rgb(34,34,34); fill-rule: nonzero; opacity: 1; visibility: hidden;" transform=" translate(-541.85, -577.7456)" d="M 529.2 585.9 l 26.1 -1.3 c 4.1 -0.2 7.3 -3.7 7.1 -7.9 c -0.2 -4.1 -3.7 -7.3 -7.9 -7.1 l -26.1 1.3 c -4.1 0.2 -7.3 3.7 -7.1 7.9 c 0.2 4 3.5 7.1 7.5 7.1 C 529 585.9 529.1 585.9 529.2 585.9 z" stroke-linecap="round"/>
</g>
<g transform="matrix(0.0374 0 0 0.0374 20.4704 31.9125)" id="colored_x5F_line">
<path style="stroke: none; stroke-width: 1; stroke-dasharray: none; stroke-linecap: butt; stroke-dashoffset: 0; stroke-linejoin: miter; stroke-miterlimit: 4; is-custom-font: none; font-file-url: none; fill: rgb(34,34,34); fill-rule: nonzero; opacity: 1; visibility: hidden;" transform=" translate(-375.9, -580.6403)" d="M 360.7 589.2 c 0.2 0 0.3 0 0.5 0 l 30.4 -2.1 c 4.1 -0.3 7.3 -3.9 7 -8 c -0.3 -4.1 -3.9 -7.3 -8 -7 l -30.4 2.1 c -4.1 0.3 -7.3 3.9 -7 8 C 353.5 586.1 356.8 589.2 360.7 589.2 z" stroke-linecap="round"/>
</g>
<g transform="matrix(0.0374 0 0 0.0374 25.0028 34.3183)" id="colored_x5F_line">
<path style="stroke: none; stroke-width: 1; stroke-dasharray: none; stroke-linecap: butt; stroke-dashoffset: 0; stroke-linejoin: miter; stroke-miterlimit: 4; is-custom-font: none; font-file-url: none; fill: rgb(34,34,34); fill-rule: nonzero; opacity: 1; visibility: hidden;" transform=" translate(-496.95, -644.8989)" d="M 497.9 737 c 0 0 0.1 0 0.1 0 c 4.1 -0.1 7.5 -3.5 7.4 -7.6 c -0.4 -25.7 -0.9 -78.2 -1.6 -138.9 l -0.3 -30.3 c 0 -4.1 -3.4 -7.5 -7.6 -7.4 c -4.1 0 -7.5 3.4 -7.4 7.6 l 0.3 30.3 c 0.6 60.8 1.2 113.2 1.6 139 C 490.4 733.8 493.8 737 497.9 737 z" stroke-linecap="round"/>
</g>
<g transform="matrix(0.0374 0 0 0.0374 25.0631 25.9897)" id="colored_x5F_line">
<path style="stroke: none; stroke-width: 1; stroke-dasharray: none; stroke-linecap: butt; stroke-dashoffset: 0; stroke-linejoin: miter; stroke-miterlimit: 4; is-custom-font: none; font-file-url: none; fill: rgb(34,34,34); fill-rule: nonzero; opacity: 1; visibility: hidden;" transform=" translate(-498.5728, -422.4617)" d="M 492.6 308.4 c -50.8 1.2 -97.3 13.2 -128.2 33.4 c -15.6 10.2 -26.9 20.3 -35.6 31.8 c -16.1 21.4 -26.6 48.7 -29.3 76.7 c -2.5 25.5 -2.6 51.5 -0.2 79.4 c 0.3 3.9 3.6 6.9 7.5 6.9 c 0.2 0 0.4 0 0.6 0 c 4.1 -0.3 7.2 -4 6.8 -8.1 c -2.3 -27 -2.2 -52.1 0.2 -76.7 c 2.5 -25.4 11.9 -49.9 26.4 -69.2 c 7.6 -10.1 17.7 -19.1 31.8 -28.3 c 27.2 -17.8 67.9 -28.6 113 -30.7 c 0.8 40.4 1.7 125.1 2.6 203.8 c 0 4.1 3.4 7.4 7.5 7.4 c 0 0 0.1 0 0.1 0 c 4.1 0 7.5 -3.4 7.4 -7.6 c -0.9 -78.8 -1.8 -163.6 -2.6 -204 c 6.8 0 13.6 0.2 20.5 0.5 c 58.2 3.2 106.6 19.9 129.5 44.7 c 14.3 15.4 22.6 34.3 28 63.2 c 4.9 26.8 6.9 59.4 5.6 91.9 c -0.2 4.1 3.1 7.6 7.2 7.8 c 4.1 0.2 7.6 -3.1 7.8 -7.2 c 1.3 -33.6 -0.7 -67.4 -5.9 -95.2 c -3.9 -21.2 -11 -48.4 -31.7 -70.6 c -25.5 -27.5 -77.8 -46 -139.7 -49.4 c -9.8 -0.5 -19.5 -0.7 -29.1 -0.5 c 0 0 -0.1 0 -0.1 0 C 492.7 308.4 492.7 308.4 492.6 308.4 z" stroke-linecap="round"/>
</g>
<g transform="matrix(0.0374 0 0 0.0374 16.8445 27.518)" id="colored_x5F_line">
<path style="stroke: none; stroke-width: 1; stroke-dasharray: none; stroke-linecap: butt; stroke-dashoffset: 0; stroke-linejoin: miter; stroke-miterlimit: 4; is-custom-font: none; font-file-url: none; fill: rgb(34,34,34); fill-rule: nonzero; opacity: 1; visibility: hidden;" transform=" translate(-279.0735, -463.2878)" d="M 146.1 744.3 C 146.1 744.3 146.1 744.3 146.1 744.3 C 146.1 744.3 146.1 744.3 146.1 744.3 C 146.2 744.3 146.2 744.3 146.1 744.3 c 0.1 0 0.2 0 0.2 0 l 0 0 c 0.7 0 1.4 0 2.1 0 c 3.7 0 7.2 -0.3 10.4 -0.9 c 12.2 -2.2 22.3 -9 27 -18.3 c 4 -7.9 4 -16.7 4 -23.8 c 0 -8.3 -0.1 -16.6 -0.1 -24.9 c 0 -10.7 -0.1 -25.5 -9 -36.6 c -5.4 -6.8 -13.4 -11.4 -23.2 -13.2 c -4.1 -0.8 -8 1.9 -8.7 6 c -0.8 4.1 1.9 8 6 8.7 c 4.3 0.8 10.3 2.8 14.2 7.8 c 5.2 6.5 5.7 16.3 5.7 27.3 c 0 8.3 0 16.6 0.1 24.9 c 0 6 0 12.3 -2.4 17 c -2.6 5.2 -8.7 9 -16.3 10.4 c -2.9 0.5 -6.1 0.7 -9.6 0.6 c 0 0 0 0 0 0 c 0 0 0 0 0 0 c -24.4 -0.6 -39.2 -7.4 -46.4 -21.3 c -9 -17.4 -8.5 -42.5 -8.2 -60.8 c 1 -51 2 -100.6 3.1 -150.3 c 0.9 -44.9 1.9 -89.8 2.8 -135.8 c 0.5 -25.9 1.1 -52.7 11 -76.6 c 16.4 -39.5 48 -62.5 102.3 -74.3 c 38.8 -8.5 196.1 -14.9 262.4 -12.3 c 4.1 0.2 7.6 -3.1 7.8 -7.2 c 0.2 -4.1 -3.1 -7.6 -7.2 -7.8 c -68 -2.7 -225.4 3.7 -266.2 12.6 c -29.3 6.4 -52.4 15.9 -70.7 29.1 c -19 13.7 -32.9 31.4 -42.3 54.2 c -11 26.5 -11.6 56 -12.1 82 c -0.9 46.1 -1.9 91 -2.8 135.8 C 79 546.4 78 596 77 647 c -0.4 19.9 -0.9 47.2 9.8 68 C 96.7 734 116.1 743.6 146.1 744.3 z" stroke-linecap="round"/>
</g>
<g transform="matrix(0.0374 0 0 0.0374 28.3764 17.2464)" id="colored_x5F_line">
<path style="stroke: none; stroke-width: 1; stroke-dasharray: none; stroke-linecap: butt; stroke-dashoffset: 0; stroke-linejoin: miter; stroke-miterlimit: 4; is-custom-font: none; font-file-url: none; fill: rgb(34,34,34); fill-rule: nonzero; opacity: 1; visibility: hidden;" transform=" translate(-587.0501, -188.9457)" d="M 581.4 259.7 c 0.2 4 3.5 7.1 7.5 7.1 c 0.1 0 0.2 0 0.4 0 c 4.1 -0.2 7.3 -3.7 7.1 -7.9 c -0.9 -18.2 -1.5 -47.8 -2.1 -76.5 c -0.5 -22.8 -1 -46.4 -1.6 -64.1 c -0.1 -4.1 -3.6 -7.4 -7.8 -7.2 c -4.1 0.1 -7.4 3.6 -7.2 7.8 c 0.6 17.6 1.1 41.2 1.6 63.9 C 579.9 211.5 580.5 241.3 581.4 259.7 z" stroke-linecap="round"/>
</g>
<g transform="matrix(0.0374 0 0 0.0374 30.9076 16.0054)" id="colored_x5F_line">
<path style="stroke: none; stroke-width: 1; stroke-dasharray: none; stroke-linecap: butt; stroke-dashoffset: 0; stroke-linejoin: miter; stroke-miterlimit: 4; is-custom-font: none; font-file-url: none; fill: rgb(34,34,34); fill-rule: nonzero; opacity: 1; visibility: hidden;" transform=" translate(-654.6575, -155.7959)" d="M 619.7 152.5 c 0 0 0.1 0 0.1 0 c 12.3 -0.2 23.6 -0.4 34.8 -0.6 c 7.9 -0.2 15.7 -0.3 24 -0.5 c 1.8 0 3.3 1.4 3.4 3.2 l 0 0.8 c 0 1.2 -0.5 2 -0.9 2.4 c -0.4 0.4 -1.1 1 -2.3 1.1 c -10.7 0.4 -21 0.5 -31.8 0.7 c -8.5 0.1 -17.3 0.3 -26.4 0.5 c -4.1 0.1 -7.4 3.6 -7.3 7.7 c 0.1 4.1 3.4 7.3 7.5 7.3 c 0.1 0 0.1 0 0.2 0 c 9.1 -0.2 17.8 -0.4 26.3 -0.5 c 10.9 -0.2 21.2 -0.3 32.1 -0.7 c 4.9 -0.2 9.5 -2.2 12.8 -5.8 c 3.3 -3.6 5.1 -8.3 4.9 -13.2 l 0 -0.8 c -0.4 -9.9 -8.7 -17.9 -18.7 -17.6 c -8.2 0.1 -16.1 0.3 -24 0.5 c -11.3 0.2 -22.6 0.4 -34.8 0.6 c -4.1 0.1 -7.4 3.5 -7.4 7.6 C 612.3 149.3 615.6 152.5 619.7 152.5 z" stroke-linecap="round"/>
</g>
<g transform="matrix(0.0374 0 0 0.0374 30.9261 18.2202)" id="colored_x5F_line">
<path style="stroke: none; stroke-width: 1; stroke-dasharray: none; stroke-linecap: butt; stroke-dashoffset: 0; stroke-linejoin: miter; stroke-miterlimit: 4; is-custom-font: none; font-file-url: none; fill: rgb(34,34,34); fill-rule: nonzero; opacity: 1; visibility: hidden;" transform=" translate(-655.1505, -214.95)" d="M 677.8 218.4 c -10.9 0.2 -21 0.2 -31.7 0.3 c -7.8 0.1 -15.7 0.1 -24.3 0.2 c -4.1 0 -7.5 3.4 -7.4 7.6 c 0 4.1 3.4 7.4 7.5 7.4 c 0 0 0.1 0 0.1 0 c 8.5 -0.1 16.4 -0.2 24.2 -0.2 c 10.7 -0.1 20.9 -0.2 31.8 -0.3 c 10.1 -0.2 18.2 -8.5 18.1 -18.6 l 0 -0.7 c -0.1 -10 -8.3 -18.1 -18.3 -18.1 c -10.8 0 -20.4 0.1 -30.6 0.2 c -8.1 0.1 -16.4 0.2 -25.5 0.2 c -4.1 0 -7.5 3.4 -7.5 7.5 c 0 4.1 3.4 7.5 7.5 7.5 c 0 0 0 0 0 0 c 9.1 0 17.5 -0.1 25.6 -0.2 c 10.2 -0.1 19.8 -0.2 30.5 -0.2 c 1.8 0 3.3 1.5 3.3 3.3 l 0 0.7 C 681.1 216.9 679.6 218.4 677.8 218.4 z" stroke-linecap="round"/>
</g>
<g transform="matrix(0.0374 0 0 0.0374 19.7804 38.6931)" id="colored_x5F_line">
<path style="stroke: none; stroke-width: 1; stroke-dasharray: none; stroke-linecap: butt; stroke-dashoffset: 0; stroke-linejoin: miter; stroke-miterlimit: 4; is-custom-font: none; font-file-url: none; fill: rgb(34,34,34); fill-rule: nonzero; opacity: 1; visibility: hidden;" transform=" translate(-357.4752, -761.7369)" d="M 282 719.9 c -15 25.2 -12.9 59.2 3.9 83.3 c 16.8 24.1 46.8 37.8 76.1 36.3 c 27.9 -1.4 55.2 -16.6 69.7 -40.5 c 14.6 -23.9 15.4 -55.9 0.6 -79.7 C 403.2 672 310.5 671.9 282 719.9 z M 329.5 749.1 c 8.2 -21.3 34.5 -25.3 51.4 -11.5 c 6.1 5.1 9.8 12.8 10.4 20.8 c 0.9 12.7 -6.6 25.5 -18.1 31 c -11.5 5.5 -26.1 3.3 -35.5 -5.4 C 328.3 775.4 324.9 760.9 329.5 749.1 z" stroke-linecap="round"/>
</g>
<g transform="matrix(0.0374 0 0 0.0374 31.2638 38.6319)" id="colored_x5F_line">
<path style="stroke: none; stroke-width: 1; stroke-dasharray: none; stroke-linecap: butt; stroke-dashoffset: 0; stroke-linejoin: miter; stroke-miterlimit: 4; is-custom-font: none; font-file-url: none; fill: rgb(34,34,34); fill-rule: nonzero; opacity: 1; visibility: hidden;" transform=" translate(-664.1721, -760.1051)" d="M 580.6 726.5 c -14 35.3 0 79.1 31 101.1 c 31 21.9 75.9 21.1 106.9 -0.8 c 28.3 -20 40.8 -57.6 31.8 -91.1 C 730.6 661.5 608.6 655.7 580.6 726.5 z M 696.8 764.5 c -2.5 13.6 -14.5 24.9 -28.2 26.7 c -9.4 1.2 -19.2 -1.9 -26.3 -8 c -7.1 -6.2 -11.5 -15.4 -12 -24.8 c -0.6 -11.6 4.8 -23.4 14.3 -30.1 C 669.6 710.6 702 736 696.8 764.5 z" stroke-linecap="round"/>
</g>
</svg>