<svg fill="none" height="20" viewBox="0 0 32 20" width="32" xmlns="http://www.w3.org/2000/svg" xmlns:xlink="http://www.w3.org/1999/xlink"><clipPath id="a"><path d="m0 2.39999c0-1.10457.895431-1.999996 2-1.999996h28c1.1046 0 2 .895426 2 1.999996v15.20001c0 1.1046-.8954 2-2 2h-28c-1.104569 0-2-.8954-2-2z"/></clipPath><clipPath id="b"><path d="m0 .399994h32v19.200006h-32z"/></clipPath><g clip-path="url(#a)"><g clip-path="url(#b)"><path d="m0 .399994h32v19.200006h-32z" fill="#fff"/><path d="m0 .399994h32v19.2h-32z" fill="#012169"/><path d="m0 0h4.12089v40.4192h-4.12089z" fill="#fff" transform="matrix(.433578 -.901116 .867175 .498004 -2.44897 2.15906)"/><path d="m0 0h4.12145v40.4131h-4.12145z" fill="#fff" transform="matrix(-.431883 -.90193 .868208 -.4962 -.683838 22.2519)"/><path d="m0 0h3.12838v40.4192h-3.12838z" fill="#c8102e" transform="matrix(.433578 -.901116 .867175 .498004 -2.44897 1.58307)"/><path d="m0 0h3.12793v40.6272h-3.12793z" fill="#c8102e" transform="matrix(-.431883 -.90193 .868208 -.4962 -.967773 21.8511)"/><path d="m12.5867.399994h6.82667v19.2h-6.82667z" fill="#fff"/><path d="m32 6.92799h6.144v32h-6.144z" fill="#fff" transform="matrix(0 1 -1 0 38.92799 -25.07201)"/><g fill="#c8102e"><path d="m13.4399.399994h5.12v19.2h-5.12z"/><path d="m32 7.696h4.608v32h-4.608z" transform="matrix(0 1 -1 0 39.696 -24.304)"/></g></g></g></svg>