<?xml version="1.0" encoding="iso-8859-1"?>
<!-- Generator: Adobe Illustrator 19.0.0, SVG Export Plug-In . SVG Version: 6.00 Build 0)  -->
<svg version="1.1" id="Layer_1" xmlns="http://www.w3.org/2000/svg" xmlns:xlink="http://www.w3.org/1999/xlink" x="0px" y="0px"
	 viewBox="0 0 512.001 512.001" style="enable-background:new 0 0 512.001 512.001;" xml:space="preserve">
<path style="fill:#FF6464;" d="M495.802,404.298l-130.543-75.161c-12.666-7.293-28.65-5.178-38.985,5.156l-25.713,25.713
	c-9.91,9.911-25.69,10.812-36.61,2.025c-20.16-16.222-40.31-34.272-60.009-53.971c-19.699-19.699-37.75-39.849-53.971-60.009
	c-8.787-10.92-7.886-26.7,2.025-36.61l25.713-25.713c10.335-10.335,12.449-26.318,5.156-38.984L107.703,16.199
	C97.09-2.234,71.874-5.569,56.834,9.471L18.088,48.216c-50.493,50.493,8.348,191.198,131.423,314.273
	s263.78,181.916,314.273,131.423l38.745-38.745C517.57,440.127,514.235,414.911,495.802,404.298z"/>
<g>
	<path style="fill:#D2555A;" d="M45.933,20.372L154.5,208.936l23.209-23.209c10.335-10.335,12.448-26.318,5.155-38.985
		L107.703,16.199C97.09-2.234,71.874-5.569,56.834,9.471L45.933,20.372z"/>
	<path style="fill:#D2555A;" d="M491.629,466.068l10.901-10.901c15.04-15.04,11.704-40.256-6.728-50.869l-130.543-75.161
		c-12.666-7.293-28.65-5.178-38.985,5.156l-23.814,23.812L491.629,466.068z"/>
	<path style="fill:#D2555A;" d="M151.995,211.44l25.714-25.713c10.335-10.335,12.448-26.318,5.155-38.985l-18.486-32.108
		c-19.541,16.887-38.518,33.162-49.619,44.263c-13.958,13.958-8.828,35.31,35.212,89.153
		C141.185,237.132,142.085,221.351,151.995,211.44z"/>
</g>
<path style="fill:#BE4B50;" d="M182.864,146.743l-18.486-32.108c-15.906,13.745-31.362,27.034-42.577,37.508l32.698,56.792
	l23.209-23.209C188.044,175.393,190.157,159.409,182.864,146.743z"/>
<path style="fill:#D2555A;" d="M495.802,404.298l-18.879-10.87c-17.414,19.897-70.944,80.334-87.957,90.986
	c-9.923,6.212-26.504,13.032-44.438,13.116c52.158,19.693,95.606,20.034,119.257-3.618l38.745-38.745
	C517.57,440.127,514.235,414.911,495.802,404.298z"/>
<path style="fill:#BE4B50;" d="M495.802,404.298l-18.879-10.87c-7.72,8.82-22.538,25.605-38.124,42.489l52.83,30.151l10.901-10.901
	C517.57,440.127,514.235,414.911,495.802,404.298z"/>
<g>
</g>
<g>
</g>
<g>
</g>
<g>
</g>
<g>
</g>
<g>
</g>
<g>
</g>
<g>
</g>
<g>
</g>
<g>
</g>
<g>
</g>
<g>
</g>
<g>
</g>
<g>
</g>
<g>
</g>
</svg>
